<svg width="16" height="16" viewBox="0 0 16 16" fill="none" xmlns="http://www.w3.org/2000/svg">
<path d="M16 0.00200531C16 0.00200531 9.888 -0.293958 5.072 6.30522C1.376 11.3686 0 16 0 16L1.552 15.2001C2.704 13.2004 3.304 12.3765 4.432 11.2006C6.456 11.7925 8.568 11.7205 10.4 9.6008C8.8 9.15286 7.52 9.25685 5.632 9.44882C7.752 8.001 9.2 7.68104 11.2 8.001L12 6.4012C10.56 6.12924 9.6 6.10524 8.176 6.4332C9.752 5.32134 10.848 4.69742 12.8 4.8014L13.768 3.2576C12.52 3.16961 11.768 3.30559 10.336 3.65755C11.624 2.48969 12.8 1.96176 14.512 1.85777C14.512 1.85777 15.352 0.345962 16 0.00200531Z" fill="#FF811D"/>
</svg>
