<svg width="11" height="16" viewBox="0 0 11 16" fill="none" xmlns="http://www.w3.org/2000/svg">
<path d="M7.27216 5V0.5C7.27216 0.22375 7.06875 0 6.81761 0H5.90852C5.65739 0 5.45398 0.22375 5.45398 0.5V5.09156C5.59659 5.03594 5.74773 5 5.90767 5H7.27216ZM10.9085 7.99969C10.9082 6.89531 10.0943 6 9.09062 6H5.90483C5.6554 6 5.45312 6.22094 5.45312 6.49531V6.51281C5.45312 7.33375 6.05824 8 6.80455 8H7.80625C8.08125 8 8.18125 8.11187 8.18125 8.25V8.75625C8.18125 8.89031 8.07926 8.99938 7.95739 9.00625C6.69261 9.0775 6.13466 9.77844 5.22869 11.2734L5.04943 11.5694C5.0329 11.5967 5.01162 11.6202 4.98684 11.6384C4.96205 11.6567 4.93423 11.6694 4.90497 11.6759C4.87571 11.6823 4.84559 11.6824 4.81632 11.676C4.78704 11.6696 4.7592 11.657 4.73438 11.6388L4.35625 11.3612C4.33141 11.3431 4.31008 11.3197 4.29346 11.2924C4.27685 11.2651 4.26528 11.2345 4.25943 11.2023C4.25357 11.1702 4.25354 11.137 4.25933 11.1048C4.26512 11.0726 4.27662 11.042 4.29318 11.0147L4.47244 10.7188C4.91932 9.98125 5.3304 9.36688 5.81648 8.90375C5.32585 8.73156 4.92443 8.3375 4.71222 7.82719C4.525 7.93375 4.31563 7.99969 4.09091 7.99969H3.18182C2.83125 7.99969 2.51449 7.84937 2.27273 7.60969C2.03068 7.84969 1.71392 8 1.36364 8H0.454545C0.294318 8 0.142898 7.96406 0 7.90781V10.3431C0 11.4041 0.382955 12.4212 1.06506 13.1716L1.8179 14V16H9.09006V14.0013L10.1102 12.8787C10.6218 12.3159 10.9092 11.5525 10.9091 10.7566L10.9085 7.99969ZM9.99915 5.18437V1.5C9.99915 1.22375 9.79574 1 9.5446 1H8.63551C8.38438 1 8.18097 1.22375 8.18097 1.5V5H9.09006C9.41051 5 9.71335 5.07219 9.99915 5.18437ZM0.454545 7H1.36364C1.61477 7 1.81818 6.77625 1.81818 6.5V2.5C1.81818 2.22375 1.61477 2 1.36364 2H0.454545C0.203409 2 0 2.22375 0 2.5V6.5C0 6.77625 0.203409 7 0.454545 7ZM3.18153 7H4.09063C4.34176 7 4.54517 6.77625 4.54517 6.5V1.5C4.54517 1.22375 4.34176 1 4.09063 1H3.18153C2.9304 1 2.72699 1.22375 2.72699 1.5V6.5C2.72699 6.77625 2.9304 7 3.18153 7Z" fill="#FF811D"/>
</svg>
