<svg width="15" height="16" viewBox="0 0 15 16" fill="none" xmlns="http://www.w3.org/2000/svg">
<path d="M9.85998 10.4239C9.80554 10.2977 9.74092 10.1759 9.66671 10.0596V7.95386C9.66701 7.65958 9.60753 7.36814 9.49169 7.09636C9.37584 6.82457 9.20593 6.57781 8.99174 6.3703C8.77882 6.16163 8.52551 5.9962 8.24649 5.8836C7.96747 5.77099 7.66829 5.71345 7.36627 5.7143C7.06408 5.71359 6.76474 5.7712 6.48553 5.88379C6.20631 5.99638 5.95274 6.16173 5.73947 6.3703C5.52538 6.5778 5.35563 6.82459 5.24006 7.09641C5.12448 7.36822 5.06535 7.65965 5.06611 7.95386V8.26078H5.9873V7.95386C5.9873 7.59666 6.13004 7.25832 6.39186 7.00456C6.51955 6.87958 6.67143 6.78051 6.83868 6.71308C7.00594 6.64566 7.18526 6.61121 7.36627 6.61175C7.73155 6.61237 8.08169 6.75394 8.34008 7.00547C8.59846 7.257 8.74405 7.59801 8.74498 7.95386V9.18023C8.32632 8.9371 7.84775 8.8093 7.36036 8.81046C7.00408 8.80977 6.65118 8.87774 6.32197 9.01045C5.99277 9.14317 5.69376 9.33802 5.44217 9.58378C5.19 9.82895 4.99008 10.1203 4.8539 10.441C4.71771 10.7617 4.64796 11.1055 4.64865 11.4525C4.64806 11.7993 4.71787 12.1428 4.85405 12.4632C4.99023 12.7836 5.19011 13.0746 5.44217 13.3195C5.6938 13.5653 5.99272 13.7603 6.32182 13.8934C6.65093 14.0265 7.00374 14.0951 7.36008 14.0952C7.71642 14.0954 8.06929 14.027 8.39848 13.8941C8.72768 13.7612 9.02674 13.5664 9.27855 13.3208C9.5307 13.0756 9.73061 12.7844 9.86679 12.4637C10.003 12.143 10.0727 11.7993 10.0721 11.4523C10.0721 11.0961 10.0008 10.7497 9.85944 10.4236L9.85998 10.4239ZM7.3609 13.1969C6.37385 13.1969 5.57039 12.4141 5.57039 11.4525C5.57039 10.4909 6.37385 9.70817 7.3609 9.70817C7.83566 9.70852 8.29088 9.89241 8.62659 10.2195C8.9623 10.5465 9.15105 10.99 9.15141 11.4525C9.15077 11.915 8.96192 12.3583 8.62627 12.6853C8.29063 13.0123 7.83557 13.1963 7.3609 13.1969ZM8.12968 11.4607C8.12968 12.4466 6.61039 12.4466 6.61039 11.4607C6.61039 10.4731 8.12968 10.4731 8.12968 11.4607Z" fill="#FF811D"/>
<path fill-rule="evenodd" clip-rule="evenodd" d="M9.72619 3.5C9.72619 2.83696 9.45653 2.20107 8.97652 1.73223C8.49652 1.26339 7.84549 1 7.16667 1C6.48784 1 5.83681 1.26339 5.35681 1.73223C4.87681 2.20107 4.60714 2.83696 4.60714 3.5V4H9.72619V3.5ZM10.75 3.5V4H14.3333V14C14.3333 14.5304 14.1176 15.0391 13.7336 15.4142C13.3496 15.7893 12.8288 16 12.2857 16H2.04762C1.50456 16 0.983737 15.7893 0.599734 15.4142C0.215731 15.0391 0 14.5304 0 14V4H3.58333V3.5C3.58333 2.57174 3.96086 1.6815 4.63287 1.02513C5.30487 0.368749 6.21631 0 7.16667 0C8.11703 0 9.02846 0.368749 9.70047 1.02513C10.3725 1.6815 10.75 2.57174 10.75 3.5ZM13.3095 14V5H1.02381V14C1.02381 14.2652 1.13167 14.5196 1.32368 14.7071C1.51568 14.8946 1.77609 15 2.04762 15H12.2857C12.5572 15 12.8177 14.8946 13.0097 14.7071C13.2017 14.5196 13.3095 14.2652 13.3095 14Z" fill="#FF811D"/>
</svg>
