<svg width="16" height="16" viewBox="0 0 16 16" fill="none" xmlns="http://www.w3.org/2000/svg">
<path d="M15.36 2.28571C15.36 1.98261 15.2251 1.69192 14.9851 1.47759C14.745 1.26327 14.4195 1.14286 14.08 1.14286H11.52V0H10.24V1.14286H5.12V0H3.84V1.14286H1.28C0.940523 1.14286 0.61495 1.26327 0.374903 1.47759C0.134857 1.69192 0 1.98261 0 2.28571V13.7143C0 14.0174 0.134857 14.3081 0.374903 14.5224C0.61495 14.7367 0.940523 14.8571 1.28 14.8571H3.84V13.7143H1.28V2.28571H3.84V3.42857H5.12V2.28571H10.24V3.42857H11.52V2.28571H14.08V5.71429H15.36V2.28571Z" fill="#FF811D"/>
<path d="M10.88 7.42857L12.5114 10.2503L16 10.7023L13.44 12.8989L14.08 16L10.88 14.536L7.68 16L8.32 12.8989L5.76 10.7023L9.344 10.2503L10.88 7.42857Z" fill="#FF811D"/>
</svg>
