<svg width="16" height="11" viewBox="0 0 16 11" fill="none" xmlns="http://www.w3.org/2000/svg">
<g clip-path="url(#clip0_4207_125696)">
<path d="M0.703418 10.857V9.43126C0.703418 8.88942 0.700085 8.34758 0.703418 7.80913C0.703418 7.66012 0.750085 7.5145 0.840085 7.39597C0.930085 7.27744 1.05342 7.19278 1.19675 7.15892C1.61342 7.04039 1.98342 7.15892 2.25342 7.50095C2.72675 8.09698 3.20342 8.69639 3.67342 9.2958C3.72008 9.36353 3.78342 9.41433 3.85675 9.45158C3.93008 9.48545 4.01008 9.50238 4.09009 9.49899C4.59342 9.49561 5.09675 9.49899 5.60342 9.49899C5.84342 9.49899 5.98342 9.64123 5.99675 9.88167C5.99675 9.92569 5.99675 9.96972 5.99675 10.0137C6.00342 10.1052 5.96675 10.1458 5.87342 10.1458H3.30675C3.27675 10.1458 3.24675 10.1424 3.21675 10.1289C3.19008 10.1153 3.16342 10.095 3.14675 10.0679C3.06675 9.95956 2.98675 9.85119 2.90675 9.74621C2.70675 9.47529 2.51008 9.20437 2.30675 8.93683C2.26342 8.87587 2.20008 8.83185 2.13008 8.80815C2.06008 8.78444 1.98342 8.78444 1.91342 8.80815C1.76342 8.85556 1.69008 8.96731 1.67342 9.11632C1.66008 9.23484 1.71342 9.33305 1.78008 9.4211C2.04675 9.78685 2.31342 10.1492 2.58342 10.5116C2.63675 10.5793 2.66675 10.664 2.66675 10.7486V10.8536H3.51008C3.53675 10.8536 3.56342 10.8536 3.60008 10.8536H8.00675L7.99675 10.8434H9.73675C10.6434 10.8434 11.5534 10.8468 12.4601 10.8434C12.4968 10.8434 12.5301 10.8468 12.5534 10.857H13.3401C13.3401 10.8231 13.3401 10.7926 13.3401 10.7588C13.3401 10.664 13.3701 10.5691 13.4301 10.4946C13.7068 10.1255 13.9801 9.75637 14.2468 9.38046C14.3834 9.19082 14.3534 8.96054 14.1968 8.85217C14.0268 8.73026 13.8134 8.77428 13.6734 8.96392C13.4101 9.31612 13.1468 9.6717 12.8868 10.0273C12.8634 10.0645 12.8268 10.095 12.7868 10.1153C12.7468 10.1357 12.7034 10.1424 12.6568 10.1424H10.1468C10.0901 10.1424 10.0234 10.1526 10.0134 10.0713C9.97675 9.76314 10.0734 9.48545 10.4301 9.49561C10.9234 9.50577 11.4201 9.49561 11.9134 9.49899C12.0901 9.49899 12.2301 9.44481 12.3301 9.2958C12.3668 9.23823 12.4168 9.19082 12.4568 9.14002C12.8934 8.59141 13.3268 8.04279 13.7568 7.49079C14.0568 7.10812 14.4568 7.04377 14.8701 7.18601C15.1468 7.28083 15.2934 7.50095 15.2934 7.79558C15.2934 8.8183 15.2968 9.84103 15.2934 10.8638H15.9968C15.9968 9.86474 15.9968 8.86233 15.9968 7.86331C15.9968 7.74817 15.9934 7.63303 15.9768 7.51789C15.8734 6.93541 15.3501 6.49177 14.7801 6.43082C14.0934 6.35631 13.5568 6.5595 13.1334 7.12166C12.7334 7.64996 12.3101 8.16132 11.9034 8.68284C11.8768 8.7201 11.8434 8.74719 11.8034 8.76751C11.7634 8.78783 11.7201 8.7946 11.6734 8.79121C11.2268 8.78783 10.7801 8.78444 10.3334 8.79121C9.84009 8.79799 9.46675 9.096 9.35008 9.56334C9.31342 9.69202 9.30009 9.82748 9.31009 9.96294C9.32342 10.112 9.26342 10.1526 9.12008 10.1526C8.39675 10.1458 7.67342 10.1526 6.95342 10.1526C6.78231 10.1526 6.69564 10.0679 6.69342 9.8986C6.68008 9.21114 6.26675 8.7946 5.58675 8.7946C5.16675 8.7946 4.75008 8.79121 4.33342 8.7946C4.29008 8.79799 4.24342 8.79121 4.20342 8.77089C4.16342 8.75057 4.12675 8.72348 4.10008 8.68623C3.68342 8.14778 3.26008 7.61271 2.83342 7.08441C2.59675 6.79317 2.33008 6.54257 1.94675 6.46468C1.71008 6.41727 1.46342 6.4105 1.22342 6.44436C0.480085 6.53241 0.00341797 7.05732 0.00341797 7.81251V10.8773H0.703418V10.857Z" fill="#FF811D"/>
<path d="M8.01323 0H10.9366C11.6166 0 12.0066 0.399608 12.0066 1.09046V5.0188C12.0066 5.70965 11.6132 6.10926 10.9332 6.10926H7.99656C7.94656 6.10926 7.89323 6.11603 7.84656 6.13635C7.7999 6.15667 7.75656 6.18715 7.7199 6.2244C7.3699 6.58676 7.01656 6.94234 6.66323 7.30131C6.54656 7.41984 6.41656 7.50111 6.24323 7.45032C6.09656 7.40629 5.99989 7.3047 5.99656 7.14892C5.99323 6.67481 5.98989 6.20408 5.99656 5.72997C5.99656 5.5471 6.12656 5.42857 6.30656 5.41503C6.38656 5.40487 6.4699 5.42857 6.53656 5.47598C6.60323 5.52339 6.6499 5.59451 6.6699 5.67579C6.70656 5.81463 6.6899 5.95348 6.69656 6.09233C6.69656 6.12281 6.68323 6.16683 6.72323 6.18376C6.76323 6.19731 6.7799 6.16006 6.80323 6.13635C6.98323 5.95348 7.1699 5.77061 7.34323 5.58096C7.47656 5.43873 7.63989 5.40148 7.81989 5.40148C8.83656 5.40148 9.85323 5.40148 10.8699 5.40148C10.9599 5.40148 11.0499 5.40148 11.1332 5.35745C11.2766 5.27279 11.3032 5.14072 11.3032 4.98494C11.3032 3.77257 11.3032 2.5602 11.3032 1.34783V1.04304C11.3032 0.958382 11.2699 0.880492 11.2132 0.819535C11.1566 0.758578 11.0799 0.724713 10.9999 0.71794C10.9666 0.71794 10.9332 0.714553 10.8999 0.714553H5.10989C5.03323 0.70778 4.95656 0.721326 4.88656 0.748418C4.73323 0.826308 4.69656 0.961768 4.69656 1.12432V4.93414C4.69656 5.26263 4.75323 5.33375 5.06656 5.41503C5.28989 5.4726 5.39989 5.65885 5.32989 5.8722C5.30989 5.93993 5.2699 6.00089 5.21323 6.04153C5.15656 6.08217 5.0899 6.10587 5.0199 6.10587C4.8899 6.11265 4.76323 6.09571 4.6399 6.05169C4.51656 6.00766 4.40656 5.93993 4.31323 5.85189C4.21656 5.76384 4.1399 5.65547 4.08656 5.53694C4.03323 5.41841 4.00323 5.28972 3.99989 5.15765C3.98989 4.61242 3.99656 4.0672 3.99656 3.51858V1.08707C3.99656 0.396221 4.3899 0 5.07323 0C6.05323 0 7.03323 0 8.01323 0Z" fill="#FF811D"/>
<path d="M0.00671089 4.07048C-0.0232891 3.13919 0.743378 2.3569 1.68004 2.35352C2.12671 2.35352 2.55671 2.533 2.87338 2.85472C3.19004 3.17644 3.36671 3.60991 3.37004 4.0637C3.37004 4.51749 3.19338 4.95435 2.87671 5.27607C2.56004 5.59779 2.13338 5.77727 1.68671 5.78066C0.753378 5.78066 -0.0166224 5.00176 0.0100442 4.07048H0.00671089ZM0.706711 4.06709C0.730044 4.64957 1.12004 5.04579 1.67671 5.05256C2.24338 5.05934 2.64671 4.62586 2.65004 4.07048C2.65004 3.51509 2.25338 3.08161 1.68338 3.085C1.13004 3.08839 0.736711 3.48122 0.710044 4.06709H0.706711Z" fill="#FF811D"/>
<path d="M16.0001 4.06712C16.0301 4.99502 15.2634 5.77731 14.3267 5.78408C13.8834 5.77731 13.4634 5.59443 13.1534 5.27272C12.8434 4.95438 12.6701 4.52091 12.6667 4.07389C12.6667 3.62349 12.8401 3.1934 13.1501 2.87168C13.4601 2.54996 13.8801 2.36709 14.3234 2.35693C15.2567 2.35693 16.0301 3.13583 16.0001 4.06712ZM15.3001 4.07389C15.2767 3.4948 14.8901 3.09519 14.3334 3.08503C13.7734 3.07826 13.3634 3.50496 13.3601 4.06373C13.3567 4.60896 13.7501 5.05259 14.3267 5.05259C14.8767 5.05259 15.2734 4.66315 15.3034 4.07389H15.3001Z" fill="#FF811D"/>
<path d="M7.0167 3.05445C7.01003 3.46083 7.07336 3.41003 6.67336 3.41003C6.27336 3.41003 6.32003 3.4676 6.32003 3.04767C6.32003 2.64807 6.28336 2.69886 6.66003 2.69886C7.07336 2.69886 7.01003 2.64807 7.0167 3.05783V3.05445Z" fill="#FF811D"/>
<path d="M8.00001 3.41003C7.60668 3.40664 7.65334 3.46083 7.65668 3.05783C7.65668 2.64807 7.60668 2.69886 8.01001 2.69886C8.41334 2.69886 8.35668 2.64807 8.35668 3.04767C8.35668 3.46083 8.40668 3.40664 8.00001 3.41003Z" fill="#FF811D"/>
<path d="M8.9901 3.05141C8.99676 2.64841 8.93343 2.7026 9.33676 2.69921C9.72676 2.69921 9.6901 2.64503 9.6901 3.04802C9.6901 3.45102 9.7301 3.40699 9.33343 3.40699C8.93676 3.40699 9.0001 3.45779 8.9901 3.05141Z" fill="#FF811D"/>
</g>
<defs>
<clipPath id="clip0_4207_125696">
<rect width="16" height="10.8571" fill="white"/>
</clipPath>
</defs>
</svg>
