<svg width="16" height="12" viewBox="0 0 16 12" fill="none" xmlns="http://www.w3.org/2000/svg">
<path d="M6.14542 2.40207H2.78176V4.22532H5.83318V6.62739H2.78176V10.9106H0V0H6.14542V2.40207Z" fill="#FF811D"/>
<path d="M10.4599 5.65788V10.9106H7.87681V5.65788H7.03945V3.48734H7.87681V1.25891H10.4599V3.48734H11.9217V5.65788H10.4599Z" fill="#FF811D"/>
<path d="M13.1615 8.30594C13.4832 7.97795 13.8758 7.81395 14.3395 7.81395C14.8031 7.81395 15.1958 7.97795 15.5175 8.30594C15.8392 8.63394 16 9.03428 16 9.50698C16 9.97003 15.8392 10.3704 15.5175 10.708C15.1958 11.036 14.8031 11.2 14.3395 11.2C13.8758 11.2 13.4832 11.036 13.1615 10.708C12.8398 10.3704 12.6789 9.97003 12.6789 9.50698C12.6789 9.03428 12.8398 8.63394 13.1615 8.30594Z" fill="#FF811D"/>
</svg>
