<svg width="32" height="32" viewBox="0 0 32 32" fill="none" xmlns="http://www.w3.org/2000/svg">
<circle cx="16" cy="16" r="16" fill="url(#paint0_linear_4360_125626)"/>
<path d="M24.2477 8.38086H20.4545V9.82231H22.65V20.0104L20.5503 18.2631C20.2441 18.9055 19.7825 19.4604 19.2137 19.8796L23.7042 23.6164C24.2735 24.0901 25.1434 23.6903 25.1434 22.9549V9.24631C25.1434 8.77395 24.7601 8.39 24.284 8.38164C24.272 8.38112 24.2599 8.38086 24.2477 8.38086ZM7.63636 9.37581C7.63636 8.64037 8.50632 8.24054 9.07565 8.71426L14.1338 12.9234C13.5575 13.3333 13.0867 13.8806 12.7697 14.5171L10.1298 12.3203V22.9394H12.2881V24.3809H8.49498C8.01151 24.3809 7.61963 23.9936 7.61963 23.516V22.9394H7.63636V9.37581ZM15.9228 14.9245H15.871L15.9574 14.2166H13.7804V18.6389H16.0092V16.4819V16.2737C16.015 16.2015 16.0294 16.1349 16.0525 16.0738C16.0755 16.0127 16.1129 15.9627 16.1648 15.9239C16.2166 15.8794 16.2885 15.8573 16.3807 15.8573C16.4729 15.8573 16.5448 15.8794 16.5967 15.9239C16.6485 15.9627 16.6859 16.0127 16.709 16.0738C16.7378 16.1349 16.7522 16.2015 16.7522 16.2737C16.758 16.3458 16.7608 16.4152 16.7608 16.4819V18.6389H18.9897V15.9155C18.9897 15.6713 18.9609 15.4408 18.9033 15.2243C18.8457 15.0078 18.7507 14.819 18.6182 14.658C18.4915 14.4915 18.3274 14.361 18.1258 14.2666C17.9242 14.1666 17.6823 14.1166 17.4001 14.1166C17.2216 14.1166 17.0632 14.1361 16.925 14.175C16.7925 14.2139 16.6687 14.2693 16.5535 14.3415C16.4441 14.4137 16.3375 14.4998 16.2338 14.5997C16.136 14.6941 16.0323 14.8024 15.9228 14.9245Z" fill="white"/>
<defs>
<linearGradient id="paint0_linear_4360_125626" x1="16" y1="5.7742e-06" x2="16" y2="32" gradientUnits="userSpaceOnUse">
<stop stop-color="#FB9B4A"/>
<stop offset="0.223958" stop-color="#FD8B47"/>
<stop offset="0.411458" stop-color="#FE6A41"/>
<stop offset="0.588542" stop-color="#FB5C40"/>
<stop offset="0.786458" stop-color="#FD493F"/>
<stop offset="1" stop-color="#FD363C"/>
</linearGradient>
</defs>
</svg>
