<svg width="20" height="14" viewBox="0 0 20 14" fill="none" xmlns="http://www.w3.org/2000/svg">
<path d="M4.11377 12.545C4.30992 12.4402 4.40114 12.293 4.38742 12.1034C4.3737 11.9137 4.28151 11.766 4.11087 11.6602C3.94022 11.5544 3.75682 11.5539 3.56067 11.6586C3.36451 11.7634 3.2733 11.9106 3.28702 12.1003C3.30074 12.2899 3.39292 12.4377 3.56357 12.5435C3.73421 12.6493 3.91761 12.6498 4.11377 12.545ZM14.6982 6.35533C14.6117 6.32151 14.4453 6.25652 14.199 6.16037C13.9526 6.06421 13.7731 5.99392 13.6604 5.94949C13.5477 5.90507 13.3839 5.84173 13.1691 5.75949C12.9543 5.67725 12.7738 5.61058 12.6275 5.55947C12.4812 5.50837 12.3142 5.45293 12.1265 5.39315C11.9388 5.33337 11.7579 5.2792 11.5837 5.23065L11.2692 6.69132C11.133 7.3427 10.7543 7.82816 10.1331 8.14769C9.51188 8.46722 8.86685 8.51018 8.19799 8.27655C7.7197 8.10733 7.35359 7.81662 7.09966 7.40443C6.84573 6.99225 6.76303 6.55322 6.85157 6.08735L7.2634 3.96532C7.12383 3.97216 6.97502 4.00088 6.81696 4.05146C6.6589 4.10203 6.5338 4.1504 6.44163 4.19655C6.34947 4.24271 6.21166 4.31787 6.02819 4.42203C5.84473 4.52619 5.72602 4.59268 5.67208 4.6215C5.22092 4.8625 4.92858 5.2218 4.79505 5.69939L4.31557 7.41438L3.17542 8.02344L5.52608 11.7906C5.5506 11.7775 5.60137 11.7488 5.67839 11.7046C5.75541 11.6604 5.80935 11.6316 5.84022 11.6182C5.87108 11.6047 5.92177 11.5838 5.9923 11.5554C6.06282 11.5269 6.11957 11.5105 6.16254 11.506C6.20551 11.5015 6.26066 11.4982 6.32799 11.4961C6.39533 11.494 6.46013 11.5009 6.52241 11.5169L9.96883 12.3719C10.8525 12.5831 11.569 12.542 12.1182 12.2486C12.5007 12.0443 12.7395 11.772 12.8346 11.4319C13.1718 11.3749 13.4361 11.2091 13.6276 10.9345C13.8191 10.6598 13.8744 10.3686 13.7936 10.061C14.1738 9.89482 14.4218 9.62691 14.5376 9.25724C14.5839 9.12175 14.6066 8.96956 14.6058 8.80069C14.6051 8.63182 14.5667 8.49692 14.4906 8.39598C14.5685 8.41594 14.6883 8.38271 14.8501 8.29626C15.061 8.18361 15.2195 8.03428 15.3258 7.84827C15.432 7.66225 15.477 7.47508 15.4609 7.28674C15.4447 7.09841 15.3711 6.91765 15.2402 6.74446C15.1092 6.57127 14.9286 6.44156 14.6982 6.35533ZM16.1184 6.13219L16.8246 5.75497L14.6122 2.20942L13.9281 2.57486L11.9955 1.9453C11.4529 1.76733 10.929 1.81326 10.4239 2.08308L9.19551 2.7393C8.75906 2.97244 8.49758 3.31833 8.41107 3.77696L7.92373 6.28096C7.88148 6.50666 7.92086 6.71646 8.04185 6.91036C8.16284 7.10425 8.33706 7.24201 8.56453 7.32363C8.92232 7.44643 9.26693 7.42238 9.59837 7.25148C9.92981 7.08059 10.1314 6.82209 10.2031 6.476L10.6808 4.20799C10.7371 4.03632 10.8374 3.91661 10.9814 3.84888C11.1255 3.78114 11.2796 3.78191 11.4438 3.85117C11.608 3.92043 11.7102 4.03971 11.7505 4.20902C11.8837 4.25482 12.1117 4.3269 12.4346 4.42524C12.7575 4.52359 13.0026 4.60196 13.1698 4.66037C13.4157 4.7506 13.77 4.88606 14.2325 5.06677C14.6951 5.24747 14.975 5.35804 15.0721 5.39847C15.5173 5.56695 15.866 5.81152 16.1184 6.13219ZM18.2369 5.00051C18.4331 4.89573 18.5243 4.74851 18.5105 4.55887C18.4968 4.36922 18.4046 4.22149 18.234 4.11567C18.0634 4.00986 17.88 4.00934 17.6838 4.11413C17.4876 4.21891 17.3964 4.36613 17.4101 4.55577C17.4239 4.74542 17.5161 4.89315 17.6867 4.99896C17.8573 5.10478 18.0407 5.1053 18.2369 5.00051ZM17.1603 0.257323L19.9258 4.68925C20.0007 4.80929 20.0189 4.93805 19.9804 5.07553C19.942 5.21302 19.859 5.31582 19.7315 5.38393L16.5391 7.08931C16.594 7.46012 16.5463 7.81335 16.3961 8.14902C16.246 8.48469 16.0137 8.76729 15.6992 8.99683C15.6756 9.30488 15.5957 9.59844 15.4592 9.87753C15.3228 10.1566 15.137 10.3959 14.9019 10.5954C14.8486 10.9501 14.7097 11.2751 14.4853 11.5704C14.261 11.8657 13.9812 12.0906 13.646 12.245C13.4497 12.5591 13.1977 12.8153 12.8898 13.0136C12.582 13.2119 12.2492 13.3466 11.8915 13.4177C11.5337 13.4888 11.1698 13.5185 10.7997 13.5069C10.4296 13.4954 10.0591 13.444 9.68835 13.3527L6.3587 12.5276L3.72532 13.9344C3.59782 14.0025 3.46012 14.0176 3.31221 13.9796C3.1643 13.9417 3.0529 13.8627 2.978 13.7427L0.0742439 9.08915C-0.000654646 8.96912 -0.018884 8.84036 0.0195559 8.70287C0.0579958 8.56538 0.140966 8.46258 0.268466 8.39447L3.36526 6.74018C3.39358 6.63887 3.43968 6.46651 3.50357 6.2231C3.56745 5.97969 3.61478 5.80667 3.64556 5.70406C3.67633 5.60144 3.7266 5.45148 3.79637 5.25417C3.86613 5.05686 3.93594 4.90415 4.0058 4.79605C4.07565 4.68794 4.16397 4.56228 4.27076 4.41906C4.37754 4.27584 4.50147 4.14962 4.64255 4.0404C4.78363 3.93118 4.94244 3.82942 5.11898 3.73511L5.97961 3.27537C6.46509 3.01602 6.98955 2.90821 7.55299 2.95193C7.79379 2.47859 8.15693 2.11225 8.64241 1.85291L9.87083 1.1967C10.0425 1.10501 10.2154 1.0311 10.3896 0.974972C10.5638 0.918844 10.7232 0.87831 10.8678 0.85337C11.0125 0.82843 11.1769 0.822145 11.3612 0.834514C11.5454 0.846883 11.6992 0.860153 11.8225 0.874325C11.9457 0.888498 12.1081 0.923353 12.3094 0.978893C12.5108 1.03443 12.667 1.0803 12.7778 1.11649C12.8887 1.15268 13.0583 1.20978 13.2868 1.28778C13.5153 1.36578 13.6869 1.42337 13.8016 1.46056L16.413 0.0656137C16.5405 -0.00249655 16.6782 -0.0175805 16.8261 0.020362C16.974 0.0583044 17.0854 0.137291 17.1603 0.257323Z" fill="#FF811D"/>
</svg>
