<svg width="24" height="20" viewBox="0 0 24 20" fill="none" xmlns="http://www.w3.org/2000/svg">
<path d="M7.54753 19.7512C16.6042 19.7512 21.5578 12.2479 21.5578 5.74099C21.5578 5.52789 21.5578 5.31574 21.5434 5.10452C22.507 4.40744 23.3389 3.54442 24 2.55573C23.1014 2.95394 22.148 3.21503 21.1718 3.33044C22.1995 2.71525 22.9692 1.74691 23.3366 0.606906C22.3701 1.18042 21.3126 1.58467 20.2099 1.80213C19.2789 0.812078 17.9786 0.25 16.6196 0.25C13.9158 0.25 11.691 2.47488 11.691 5.17863C11.691 5.55372 11.7338 5.92764 11.8185 6.29299C7.86145 6.09466 4.16948 4.22294 1.67039 1.14836C0.370828 3.38552 1.04325 6.28474 3.19486 7.72145C2.41134 7.69825 1.64466 7.48684 0.96 7.10514V7.16753C0.960656 9.50256 2.62158 11.5321 4.91039 11.9944C4.18552 12.1921 3.42478 12.221 2.68706 12.0789C3.33052 14.0798 5.18602 15.459 7.28738 15.4984C5.54409 16.8685 3.38939 17.6126 1.17216 17.6104C0.780375 17.6097 0.388969 17.586 0 17.5394C2.25159 18.9843 4.87219 19.7509 7.54753 19.7474" fill="white"/>
</svg>
